<svg xmlns="http://www.w3.org/2000/svg" width="24" height="24" viewBox="0 0 24 24">
  <path fill="#25D366" d="M12 0C5.372 0 0 5.373 0 12c0 2.123.55 4.166 1.594 5.96L0 24l6.273-1.643C8.125 23.445 10.044 24 12 24c6.628 0 12-5.373 12-12S18.628 0 12 0zm6.076 17.107c-.253.705-1.25 1.276-1.714 1.326-.448.047-.998.232-3.384-.717-2.845-1.19-4.637-4.144-4.778-4.338-.138-.191-1.14-1.518-1.14-2.898s.722-2.05.978-2.336c.253-.284.548-.355.732-.355.188 0 .368.002.53.01.17.008.401-.066.631.477.23.541.787 1.871.856 2.006.07.138.115.304.022.488-.098.194-.148.307-.296.472-.144.16-.308.354-.44.475-.147.138-.3.29-.129.571.17.281.758 1.25 1.632 2.023 1.123 1 2.064 1.32 2.345 1.464.283.145.447.128.615-.043.162-.163.713-.824.903-1.11.192-.285.382-.238.638-.142.261.098 1.652.778 1.938.92.284.143.473.212.543.329.068.116.068.674-.188 1.38z"/>
</svg>
